HIERARCHY
ROOT Hips
{
	OFFSET 0.00000 0.00000 0.00000
	CHANNELS 6 Xposition Yposition Zposition Zrotation Yrotation Xrotation 
	JOINT LHipJoint
	{
		OFFSET 0 0 0
		CHANNELS 3 Zrotation Yrotation Xrotation
		JOINT LeftHip
		{
			OFFSET 1.53927 -1.56553 0.51726
			CHANNELS 3 Zrotation Yrotation Xrotation
			JOINT LeftKnee
			{
				OFFSET 2.38199 -6.54447 0.00000
				CHANNELS 3 Zrotation Yrotation Xrotation
				JOINT LeftAnkle
				{
					OFFSET 2.35499 -6.47028 0.00000
					CHANNELS 3 Zrotation Yrotation Xrotation
					JOINT LeftToe
					{
						OFFSET 0.13641 -0.37478 1.84251
						CHANNELS 3 Zrotation Yrotation Xrotation
						End Site
						{
							OFFSET 0.00000 -0.00000 0.95212
						}
					}
				}
			}
		}
	}
	JOINT RHipJoint
	{
		OFFSET 0 0 0
		CHANNELS 3 Zrotation Yrotation Xrotation
		JOINT RightHip
		{
			OFFSET -1.43919 -1.56553 0.51726
			CHANNELS 3 Zrotation Yrotation Xrotation
			JOINT RightKnee
			{
				OFFSET -2.34860 -6.45274 0.00000
				CHANNELS 3 Zrotation Yrotation Xrotation
				JOINT RightAnkle
				{
					OFFSET -2.25563 -6.19730 0.00000
					CHANNELS 3 Zrotation Yrotation Xrotation
					JOINT RightToe
					{
						OFFSET -0.19755 -0.54277 1.84912
						CHANNELS 3 Zrotation Yrotation Xrotation
						End Site
						{
							OFFSET -0.00000 -0.00000 0.97032
						}
					}
				}
			}
		}
	}
	JOINT lowerback
	{
		OFFSET 0 0 0
		CHANNELS 3 Zrotation Yrotation Xrotation
		JOINT Chest
		{
			OFFSET -0.06402 1.88434 -0.00445
			CHANNELS 3 Zrotation Yrotation Xrotation
			JOINT Chest2
			{
				OFFSET 0.00756 1.88511 0.04237
				CHANNELS 3 Zrotation Yrotation Xrotation
				JOINT lowerneck
				{
					OFFSET 0 0 0
					CHANNELS 3 Zrotation Yrotation Xrotation
					JOINT Neck
					{
						OFFSET -0.06230 1.34710 0.03308
						CHANNELS 3 Zrotation Yrotation Xrotation
						JOINT Head
						{
							OFFSET -0.02442 1.34501 -0.13654
							CHANNELS 3 Zrotation Yrotation Xrotation
							End Site
							{
								OFFSET -0.00508 1.35584 -0.05075
							}
						}
					}
				}
				JOINT LeftCollar
				{
					OFFSET 0 0 0
					CHANNELS 3 Zrotation Yrotation Xrotation
					JOINT LeftShoulder
					{
						OFFSET 2.76911 0.54460 0.39412
CHANNELS 3 Zrotation Xrotation Yrotation
						JOINT LeftElbow
						{
OFFSET 0 -4.409190 -0.000000
CHANNELS 3 Zrotation Xrotation Yrotation
							JOINT LeftWrist
							{
OFFSET 0 -3.038570 -0.000000
CHANNELS 3 Zrotation Xrotation Yrotation
								JOINT lhand
								{
									OFFSET 0 0 0
CHANNELS 3 Zrotation Xrotation Yrotation
									JOINT LFingers
									{
OFFSET 0 -0.523210 -0.000000
CHANNELS 3 Zrotation Xrotation Yrotation
										End Site
										{
OFFSET 0 -0.421820 -0.000000
										}
									}
								}
								JOINT LThumb
								{
OFFSET 0 0.000000 0.000000
CHANNELS 3 Zrotation Xrotation Yrotation
									End Site
									{
OFFSET 0 -0.428260 0.428260
									}
								}
							}
						}
					}
				}
				JOINT RightCollar
				{
					OFFSET 0 0 0
					CHANNELS 3 Zrotation Yrotation Xrotation
					JOINT RightShoulder
					{
						OFFSET -2.99050 0.75949 0.48975
CHANNELS 3 Zrotation Xrotation Yrotation
						JOINT RightElbow
						{
OFFSET 0 -4.619690 -0.000000
CHANNELS 3 Zrotation Xrotation Yrotation
							JOINT RightWrist
							{
OFFSET 0 -3.093820 -0.000000
CHANNELS 3 Zrotation Xrotation Yrotation
								JOINT rhand
								{
									OFFSET 0 0 0
CHANNELS 3 Zrotation Xrotation Yrotation
									JOINT RFingers
									{
OFFSET 0 -0.500900 -0.000000
CHANNELS 3 Zrotation Xrotation Yrotation
										End Site
										{
OFFSET 0 -0.403840 -0.000000
										}
									}
								}
								JOINT RThumb
								{
OFFSET 0 0.000000 0.000000
CHANNELS 3 Zrotation Xrotation Yrotation
									End Site
									{
OFFSET 0 -0.410000 0.410000
									}
								}
							}
						}
					}
				}
			}
		}
	}
}
MOTION
Frames: 5
Frame Time: 0.008333333333333333
1.561000 16.317600 -0.125500 171.170000 -79.067900 -164.526000 0.000000 0.000000 0.000000 -24.855400 -29.705800 8.003600 0.500000 4.533400 12.582400 -5.041100 37.021100 -25.125300 1.246000 7.077400 19.944800 0.000000 0.000000 0.000000 11.873700 20.734300 1.605600 -0.117300 -2.208300 6.081700 0.240000 -13.468400 -15.922800 -0.348800 -3.794600 10.499500 -3.401700 0.214700 -3.932000 0.296500 0.162000 -5.733500 2.217000 0.147200 -3.731500 -3.675300 -3.916200 2.385200 -2.153200 -5.336200 10.294600 -0.170700 -2.960800 2.909300 -0.000000 -0.000000 0.000000 -5.938700 14.544200 -10.921400 17.049700 -26.923300 4.109800 20.328300 14.112400 19.842400 0.000000 0.000000 0.000000 -7.125000 0.000000 0.000000 -5.172700 9.001100 -4.317800 -0.000000 -0.000000 0.000000 -0.904000 14.509700 34.421600 -16.131400 -25.698400 -3.702700 -12.716000 17.358200 49.250400 0.000000 0.000000 0.000000 7.125000 0.000000 -0.000000 53.223700 74.467900 -39.511100
1.560583 16.318156 -0.127445 171.308898 -79.098666 -164.654481 0.000000 0.000000 0.000000 -24.832412 -29.794278 8.009434 0.504236 4.552290 12.635806 -5.066588 37.096105 -25.182943 1.222179 7.011840 19.750551 0.000000 0.000000 0.000000 11.895438 20.645058 1.779153 -0.102507 -2.062526 5.678687 0.264793 -13.579241 -15.729940 -0.351856 -3.810921 10.545267 -3.365864 0.211575 -3.961794 0.318863 0.161514 -5.695789 2.220056 0.145325 -3.674830 -3.672869 -3.983010 2.015036 -2.226816 -5.397246 10.458291 -0.208480 -2.996914 3.031461 0.000000 0.000000 0.000000 -5.948215 14.536630 -10.980154 17.101162 -26.990943 4.133135 20.328925 14.071356 19.812467 0.000000 0.000000 0.000000 -7.125000 0.000000 0.000000 -5.170200 9.032213 -4.312452 0.000000 0.000000 0.000000 -0.933724 14.510394 34.520148 -16.180223 -25.764307 -3.723951 -12.796353 17.354519 49.206786 0.000000 0.000000 0.000000 7.125000 0.000000 0.000000 53.023062 74.475748 -39.351714
1.560556 16.322134 -0.129778 171.482027 -79.128537 -164.803578 0.000000 0.000000 0.000000 -24.678571 -29.307880 7.769820 0.509290 4.574681 12.699210 -4.905987 36.641862 -24.993660 1.180504 6.894662 19.404132 0.000000 0.000000 0.000000 11.930789 20.596659 1.845270 -0.094911 -1.987120 5.470165 0.278345 -13.641148 -15.626935 -0.353745 -3.821017 10.573569 -3.332051 0.223425 -3.994544 0.343442 0.180632 -5.665741 2.226729 0.153485 -3.625861 -3.699457 -3.955609 1.940149 -2.212794 -5.355484 10.439356 -0.200088 -2.975536 3.039572 0.000000 0.000000 0.000000 -5.934779 14.523070 -11.095816 17.133797 -27.033809 4.147951 20.294464 14.056567 19.793699 0.000000 0.000000 0.000000 -7.125000 0.000000 0.000000 -5.191077 9.056636 -4.327487 0.000000 0.000000 0.000000 -0.963526 14.496385 34.583221 -16.204890 -25.797618 -3.734700 -12.869276 17.323610 49.282434 0.000000 0.000000 0.000000 7.125000 0.000000 0.000000 53.207554 74.542021 -39.571080
1.561209 16.327382 -0.132317 171.673693 -79.156304 -164.961270 0.000000 0.000000 0.000000 -24.467224 -28.607358 7.426428 0.514709 4.598586 12.766967 -4.668821 35.974422 -24.723228 1.140749 6.781910 19.071103 0.000000 0.000000 0.000000 11.972961 20.578419 1.834517 -0.092440 -1.961136 5.398270 0.283994 -13.668611 -15.586789 -0.353890 -3.821819 10.575791 -3.301154 0.246930 -4.026059 0.368345 0.214865 -5.641912 2.235501 0.169453 -3.585137 -3.675154 -3.871926 1.996772 -2.238581 -5.243860 10.378153 -0.207728 -2.918486 3.006155 0.000000 0.000000 0.000000 -5.900063 14.500172 -11.261324 17.147739 -27.052096 4.154299 20.229566 14.056324 19.774508 0.000000 0.000000 0.000000 -7.125000 0.000000 0.000000 -5.231543 9.085762 -4.358489 0.000000 0.000000 0.000000 -0.988364 14.465778 34.604659 -16.208456 -25.802455 -3.736266 -12.926973 17.266348 49.435933 0.000000 0.000000 0.000000 7.125000 0.000000 0.000000 53.651593 74.642486 -40.040625
1.564612 16.322243 -0.134123 171.804257 -79.173805 -165.063361 0.000000 0.000000 0.000000 -24.587232 -29.644510 7.734505 0.518112 4.613448 12.809122 -4.941062 36.789129 -25.278404 1.217698 6.998313 19.710938 0.000000 0.000000 0.000000 11.986781 20.546125 1.878756 -0.086121 -1.892382 5.208327 0.296426 -13.725282 -15.490185 -0.347987 -3.790358 10.487521 -3.279972 0.269639 -4.031546 0.382859 0.247020 -5.619550 2.238834 0.184871 -3.560482 -3.111505 -3.917901 1.318463 -3.059608 -5.211914 11.057504 -0.598171 -2.930848 3.324441 0.000000 0.000000 0.000000 -5.841518 14.443363 -11.464532 17.133085 -27.032928 4.147632 20.143588 14.011599 19.688044 0.000000 0.000000 0.000000 -7.125000 0.000000 0.000000 -5.280991 9.187783 -4.389186 0.000000 0.000000 0.000000 -0.976419 14.398204 34.525279 -16.196441 -25.786273 -3.730987 -12.915930 17.172731 49.473643 0.000000 0.000000 0.000000 7.125000 0.000000 0.000000 53.781324 74.657348 -40.163966
